<?xml version="1.0" encoding="UTF-8"?>
<svg xmlns="http://www.w3.org/2000/svg" version="1.1" viewBox="0 0 205.3 58.2">
  <defs>
    <style>
      .cls-1 {
        isolation: isolate;
      }
    </style>
  </defs>
  <!-- Generator: Adobe Illustrator 28.7.1, SVG Export Plug-In . SVG Version: 1.2.0 Build 142)  -->
  <g>
    <g id="Calque_2">
      <polygon points="44 31.4 37.2 38.1 30.4 31.4 34.9 31.4 34.9 16.2 39.5 16.2 39.5 31.4 44 31.4"/>
      <g class="cls-1">
        <g class="cls-1">
          <path d="M86.3,16.2v14.8h15.2v7.1h-25.2v-22h10Z"/>
        </g>
        <g class="cls-1">
          <path d="M125,35.1h-11.7l-1.4,3h-10.1l10.6-22h13.8l11.2,22h-11l-1.4-3ZM119,22.3l-3.1,6.8h6.2l-3.1-6.8Z"/>
          <path d="M137.9,16.2h22.6c6.6,0,8.2,2.5,8.2,5v.2c0,2.6-2.3,4-4.1,4.3,2.5.5,5.4,1.8,5.4,5.7v.3c0,3.5-2.3,6.4-9.5,6.4h-22.6v-22ZM147.8,21.6v2.6h8.7c1.6,0,2.1-.5,2.1-1.3h0c0-.9-.5-1.3-2.1-1.3h-8.7ZM147.8,29.4v3.2h9.2c2,0,2.5-.8,2.5-1.6h0c0-.9-.4-1.6-2.5-1.6h-9.2Z"/>
          <path d="M188.6,15.8c14.6,0,16.6,6.5,16.6,10.9v.9c0,4.3-2.1,11-16.6,11h-1.4c-14.5,0-16.6-6.7-16.6-11v-.9c0-4.4,2.1-10.9,16.6-10.9h1.4ZM187.9,22.3c-5.7,0-7,2.5-7,4.6v.4c0,2.2,1.5,4.8,7,4.8s7-2.6,7-4.8v-.4c0-2.1-1.5-4.6-7-4.6Z"/>
        </g>
      </g>
    </g>
  </g>
</svg>