<?xml version="1.0" encoding="UTF-8"?>
<svg xmlns="http://www.w3.org/2000/svg" viewBox="0 0 1920 1920">
  <defs>
    <style>
      .cls-1 {
        fill: #9cffd9;
      }
    </style>
  </defs>
  <g id="Calque_7">
    <g>
      <path d="M1183.01,1253.54c8.53-3.88,16.87-8.1,25.63-11.58,30.51-12.11,61.12-24.05,91.83-35.8,4.52-1.73,9.81-2.43,14.71-2.86,2.36-.2,6,.88,6.59,2.22.63,1.43-.95,4.59-2.82,5.69-5.31,3.13-11.03,6.07-17.01,8.22-22.39,8.03-42.6,19.11-63.21,29.57-20.6,10.46-40.63,21.65-61.01,32.39-5.52,2.91-11.91,4.92-17.03,8.16-12.78,8.08-25.03,16.66-37.54,24.99-13.62,9.07-27.42,17.99-40.88,27.19-3.67,2.51-7.66,5.54-9.4,8.77-10.67,19.74-29.7,36.33-43.59,54.84-10.79,14.37-21.59,28.74-32.27,43.15-3.68,4.97-6.95,10.08-10.52,15.09-1.91,2.68-4.63,4.79-8.83,4.56-4.11-.23-6.15-2.28-5.98-5.25.67-11.57,2.41-23.25,7.94-34.61,11.2-23.01,23.3-45.87,35.01-68.8.29-.56.34-1.17.71-2.47-1.83,1.16-2.94,1.78-3.92,2.51-21.94,16.18-43.88,32.36-65.8,48.56-5.45,4.03-11.84,6.75-18.84,7.65-2.92.38-7.04-.44-8.53-1.96-1.31-1.34-.85-4.95.77-6.6,6.28-6.37,13.31-12.37,20.11-18.48,5.05-4.54,10.5-8.88,15.19-13.61,45.86-46.18,95.11-90.24,153.03-128.66,25.24-16.75,51.53-32.58,77.21-48.95,5.59-3.56,10.65-7.62,15.83-11.55,9.44-7.17,18.2-14.95,28.33-21.48,10.95-7.07,22.96-13.22,34.85-19.35,6.3-3.25,12-.58,11,4.88-.51,2.76-1.75,5.68-3.49,8.28-4.86,7.27-10,14.47-15.32,21.6-18.6,24.92-41.26,47.84-67.9,68.78-1.83,1.44-3.65,2.89-5.47,4.33.22.18.44.37.66.55ZM1196.27,1214.88c-.32-.23-.63-.46-.95-.69-.58.3-1.21.55-1.75.89-23.43,14.72-46.8,29.49-70.31,44.14-5.7,3.56-9.8,7.54-12.43,12.68-2.22,4.35-5.96,8.4-8.69,12.67-1.88,2.94-3.19,6.04-4.75,9.07.55.2,1.09.4,1.64.6,31.13-27.31,66.61-51.72,97.23-79.37Z"/>
      <path d="M1427.59,1123.88c-9.87,1.83-14.66-1.43-11.99-8.58,1.09-2.92,1.84-6.21,4.21-8.62,8.93-9.08,10.87-19.53,16.41-29.25,10.02-17.59,21.02-34.98,30.41-52.69,5.45-10.28,9.22-20.99,12.5-31.59,2.55-8.23,7.72-15.19,15.37-21.59,10.37-8.65,21.36-16.71,34.33-23.22,7.2-3.61,13.82-7.98,20.63-12.09,8.98-5.42,17.84-10.95,26.81-16.38,5.82-3.52,11.78-6.91,17.6-10.43,4.48-2.71,9.18-3.89,14.16-2.78,5.49,1.22,7.89,5.89,6.49,11.39-1.79,7.05-3.77,14.13-4.82,21.17-1.7,11.31-7.78,21.6-16.6,31.45-3.36,3.75-6.91,7.52-9.43,11.53-11.52,18.34-22.72,36.76-34.01,55.16-8.55,13.94-19.15,26.82-35.97,36.75-16.03,9.46-31.87,19.12-47.79,28.69-8.44,5.07-16.75,10.27-25.36,15.15-4.03,2.29-8.62,3.98-12.95,5.94ZM1562.92,967.73c-.52-.5-1.04-.99-1.57-1.49-1.6.67-3.47,1.12-4.75,2.04-6,4.28-11.79,8.73-17.75,13.05-13.88,10.05-22.26,21.85-26.59,35.22-1.56,4.8-4.26,9.64-7.41,14.17-5.02,7.21-10.93,14.16-16.31,21.27-2.69,3.56-5.04,7.23-7.54,10.86,2.27-.12,3.76-.52,4.57-1.28,8.11-7.64,17.01-14.97,23.88-23.11,6.76-8,11.15-16.92,17.09-25.27,6.04-8.49,12.53-16.86,19.16-25.16,5.48-6.86,11.46-13.54,17.21-20.3Z"/>
      <path d="M1693.9,921.53c2.29-1.11,4.28-1.7,5.55-2.75,3.31-2.77,6.18-5.82,9.47-8.61,3.14-2.66,6.42-5.27,9.92-7.67,5.8-3.97,8.46-8.99,10.26-14.06,4.17-11.76,8.68-23.58,6.57-35.32-.6-3.34-1.93-6.55-2.1-9.94-.13-2.62.08-5.76,1.87-8.04,2.61-3.32,6.62-6.19,10.32-9.05,5.38-4.16,11.11-8.06,16.52-12.2,5.78-4.43,15.71-5.8,21.56-2.71.85.45,1.76,1.18,1.91,1.93,2.49,12.64,2.04,25.2-5.62,38.33-5.27,9.05-8.76,18.57-12.28,27.95-4.72,12.57-11.45,24.45-23.13,35.02-7.49,6.78-14.24,14.1-22.55,20.25-8.95,6.63-18.9,12.72-29.2,18.06-13.52,7.02-26.71,14.08-36.64,24.17-1.2,1.22-2.35,2.46-3.38,3.75-6.77,8.56-16.79,13.68-28.8,16.69-4.88,1.22-9.77,2.71-14.7,3.42-5.88.85-8.8-1.66-6.78-5.98,2.74-5.88,6.04-11.7,9.59-17.42,6.24-10.04,12.94-19.96,19.29-29.97,2.33-3.66,4.1-7.47,6.33-11.16,7.2-11.91,11.02-23.91,9.46-36.16-1.38-10.91,4.03-20.38,16.08-28.36,1.37-.91,2.94-1.87,3.73-3.01,4.71-6.78,12.54-11.5,20.03-16.33,3.52-2.27,8.09-3.55,12.02-5.49,2.58-1.28,4.82-2.98,7.28-4.42,6.05-3.57,12.19-2.05,12.34,3.29.08,2.88-.82,5.91-1.58,8.86-2.59,10.1-6.62,20-13.59,29.42-7.17,9.69-7.79,19.74-8.83,29.77-.22,2.17-.53,4.35-.95,7.76Z"/>
      <path d="M1285.52,1195.35c-4.35,1.01-8.75-1.7-7.1-6.01,1.15-3,3.04-6.08,5.46-8.74,13.62-14.96,23.61-31.01,33.14-47.21.36-.61.75-1.28.8-1.9.97-11.45,10.54-20.16,21.28-28.03,22.39-16.4,45-32.69,70.1-46.75,2.15-1.21,4.65-2.38,7.1-2.85,6.32-1.21,10.71,2.64,7.74,7.66-4.78,8.1-9.37,16.61-16.48,23.72-11.04,11.03-19.97,22.43-27.24,34.8-5.67,9.64-10.3,19.07-11.57,29.16-.82,6.46-5.39,12.47-12.52,16.65-8.75,5.12-18.43,9.28-27.69,13.88-2.87,1.42-5.53,3.27-8.56,4.31-10.99,3.77-22.09,7.28-34.47,11.32Z"/>
    </g>
  </g>
  <g id="Calque_6">
    <g>
      <path class="cls-1" d="M1198.01,1256.54c8.53-3.88,16.87-8.1,25.63-11.58,30.51-12.11,61.12-24.05,91.83-35.8,4.52-1.73,9.81-2.43,14.71-2.86,2.36-.2,6,.88,6.59,2.22.63,1.43-.95,4.59-2.82,5.69-5.31,3.13-11.03,6.07-17.01,8.22-22.39,8.03-42.6,19.11-63.21,29.57-20.6,10.46-40.63,21.65-61.01,32.39-5.52,2.91-11.91,4.92-17.03,8.16-12.78,8.08-25.03,16.66-37.54,24.99-13.62,9.07-27.42,17.99-40.88,27.19-3.67,2.51-7.66,5.54-9.4,8.77-10.67,19.74-29.7,36.33-43.59,54.84-10.79,14.37-21.59,28.74-32.27,43.15-3.68,4.97-6.95,10.08-10.52,15.09-1.91,2.68-4.63,4.79-8.83,4.56-4.11-.23-6.15-2.28-5.98-5.25.67-11.57,2.41-23.25,7.94-34.61,11.2-23.01,23.3-45.87,35.01-68.8.29-.56.34-1.17.71-2.47-1.83,1.16-2.94,1.78-3.92,2.51-21.94,16.18-43.88,32.36-65.8,48.56-5.45,4.03-11.84,6.75-18.84,7.65-2.92.38-7.04-.44-8.53-1.96-1.31-1.34-.85-4.95.77-6.6,6.28-6.37,13.31-12.37,20.11-18.48,5.05-4.54,10.5-8.88,15.19-13.61,45.86-46.18,95.11-90.24,153.03-128.66,25.24-16.75,51.53-32.58,77.21-48.95,5.59-3.56,10.65-7.62,15.83-11.55,9.44-7.17,18.2-14.95,28.33-21.48,10.95-7.07,22.96-13.22,34.85-19.35,6.3-3.25,12-.58,11,4.88-.51,2.76-1.75,5.68-3.49,8.28-4.86,7.27-10,14.47-15.32,21.6-18.6,24.92-41.26,47.84-67.9,68.78-1.83,1.44-3.65,2.89-5.47,4.33.22.18.44.37.66.55ZM1211.27,1217.88c-.32-.23-.63-.46-.95-.69-.58.3-1.21.55-1.75.89-23.43,14.72-46.8,29.49-70.31,44.14-5.7,3.56-9.8,7.54-12.43,12.68-2.22,4.35-5.96,8.4-8.69,12.67-1.88,2.94-3.19,6.04-4.75,9.07.55.2,1.09.4,1.64.6,31.13-27.31,66.61-51.72,97.23-79.37Z"/>
      <path class="cls-1" d="M1442.59,1126.88c-9.87,1.83-14.66-1.43-11.99-8.58,1.09-2.92,1.84-6.21,4.21-8.62,8.93-9.08,10.87-19.53,16.41-29.25,10.02-17.59,21.02-34.98,30.41-52.69,5.45-10.28,9.22-20.99,12.5-31.59,2.55-8.23,7.72-15.19,15.37-21.59,10.37-8.65,21.36-16.71,34.33-23.22,7.2-3.61,13.82-7.98,20.63-12.09,8.98-5.42,17.84-10.95,26.81-16.38,5.82-3.52,11.78-6.91,17.6-10.43,4.48-2.71,9.18-3.89,14.16-2.78,5.49,1.22,7.89,5.89,6.49,11.39-1.79,7.05-3.77,14.13-4.82,21.17-1.7,11.31-7.78,21.6-16.6,31.45-3.36,3.75-6.91,7.52-9.43,11.53-11.52,18.34-22.72,36.76-34.01,55.16-8.55,13.94-19.15,26.82-35.97,36.75-16.03,9.46-31.87,19.12-47.79,28.69-8.44,5.07-16.75,10.27-25.36,15.15-4.03,2.29-8.62,3.98-12.95,5.94ZM1577.92,970.73c-.52-.5-1.04-.99-1.57-1.49-1.6.67-3.47,1.12-4.75,2.04-6,4.28-11.79,8.73-17.75,13.05-13.88,10.05-22.26,21.85-26.59,35.22-1.56,4.8-4.26,9.64-7.41,14.17-5.02,7.21-10.93,14.16-16.31,21.27-2.69,3.56-5.04,7.23-7.54,10.86,2.27-.12,3.76-.52,4.57-1.28,8.11-7.64,17.01-14.97,23.88-23.11,6.76-8,11.15-16.92,17.09-25.27,6.04-8.49,12.53-16.86,19.16-25.16,5.48-6.86,11.46-13.54,17.21-20.3Z"/>
      <path class="cls-1" d="M1708.9,924.53c2.29-1.11,4.28-1.7,5.55-2.75,3.31-2.77,6.18-5.82,9.47-8.61,3.14-2.66,6.42-5.27,9.92-7.67,5.8-3.97,8.46-8.99,10.26-14.06,4.17-11.76,8.68-23.58,6.57-35.32-.6-3.34-1.93-6.55-2.1-9.94-.13-2.62.08-5.76,1.87-8.04,2.61-3.32,6.62-6.19,10.32-9.05,5.38-4.16,11.11-8.06,16.52-12.2,5.78-4.43,15.71-5.8,21.56-2.71.85.45,1.76,1.18,1.91,1.93,2.49,12.64,2.04,25.2-5.62,38.33-5.27,9.05-8.76,18.57-12.28,27.95-4.72,12.57-11.45,24.45-23.13,35.02-7.49,6.78-14.24,14.1-22.55,20.25-8.95,6.63-18.9,12.72-29.2,18.06-13.52,7.02-26.71,14.08-36.64,24.17-1.2,1.22-2.35,2.46-3.38,3.75-6.77,8.56-16.79,13.68-28.8,16.69-4.88,1.22-9.77,2.71-14.7,3.42-5.88.85-8.8-1.66-6.78-5.98,2.74-5.88,6.04-11.7,9.59-17.42,6.24-10.04,12.94-19.96,19.29-29.97,2.33-3.66,4.1-7.47,6.33-11.16,7.2-11.91,11.02-23.91,9.46-36.16-1.38-10.91,4.03-20.38,16.08-28.36,1.37-.91,2.94-1.87,3.73-3.01,4.71-6.78,12.54-11.5,20.03-16.33,3.52-2.27,8.09-3.55,12.02-5.49,2.58-1.28,4.82-2.98,7.28-4.42,6.05-3.57,12.19-2.05,12.34,3.29.08,2.88-.82,5.91-1.58,8.86-2.59,10.1-6.62,20-13.59,29.42-7.17,9.69-7.79,19.74-8.83,29.77-.22,2.17-.53,4.35-.95,7.76Z"/>
      <path class="cls-1" d="M1300.52,1198.35c-4.35,1.01-8.75-1.7-7.1-6.01,1.15-3,3.04-6.08,5.46-8.74,13.62-14.96,23.61-31.01,33.14-47.21.36-.61.75-1.28.8-1.9.97-11.45,10.54-20.16,21.28-28.03,22.39-16.4,45-32.69,70.1-46.75,2.15-1.21,4.65-2.38,7.1-2.85,6.32-1.21,10.71,2.64,7.74,7.66-4.78,8.1-9.37,16.61-16.48,23.72-11.04,11.03-19.97,22.43-27.24,34.8-5.67,9.64-10.3,19.07-11.57,29.16-.82,6.46-5.39,12.47-12.52,16.65-8.75,5.12-18.43,9.28-27.69,13.88-2.87,1.42-5.53,3.27-8.56,4.31-10.99,3.77-22.09,7.28-34.47,11.32Z"/>
    </g>
  </g>
</svg>