<?xml version="1.0" encoding="UTF-8"?>
<svg xmlns="http://www.w3.org/2000/svg" viewBox="0 0 1920 1920">
  <defs>
    <style>
      .cls-1 {
        fill: #9cffd9;
      }
    </style>
  </defs>
  <g id="Calque_1">
    <g>
      <path d="M416.57,1022.24c7.22-2.42,13.1-5.34,19.29-6.31,21.58-3.37,40.12-15.48,61.06-20.53,3.46-.83,7.08-1.31,10.63-1.35,7.33-.09,12.87,3.34,15.67,10.1,2.87,6.95,1.75,13.94-4.02,18.69-6.82,5.62-14.35,10.46-21.95,15-9.18,5.49-18.34,10.22-25.61,18.97-6.33,7.62-16.15,12.3-24.23,18.54-2.75,2.13-4.76,5.19-7.31,7.61-5.28,5.03-10.36,10.38-16.18,14.72-3.72,2.78-5.82,5.29-5.46,10.1,1.99,26.22,3.25,52.5,5.76,78.66,3.89,40.65,8.77,81.2,12.88,121.83,3.91,38.74,8.18,77.47,10.72,116.31,1.47,22.58.09,45.37-.48,68.06-.34,13.6-2.08,27.16-2.36,40.76-.48,23.3-7.62,44.12-21.64,62.63-7.02,9.27-12.48,10.91-23.65,7.88-2.11-.57-4.46-.53-6.69-.42-9.21.46-16.3-4.95-17.65-14.04-.64-4.28-.61-8.67-.84-13.01-1.05-19.63.33-39.77-3.72-58.76-5.8-27.27-1.65-54.67-5.08-81.85-2.27-17.96-2.08-36.23-3.01-54.37-.37-7.24.66-13.87,6.41-19.21,1.36-1.26,1.88-4.11,1.77-6.17-.98-19.07-1.98-38.15-3.37-57.19-1.31-17.92-3.33-35.78-4.63-53.7-1.5-20.75-2.48-41.54-3.84-62.3-.65-10-1.59-19.99-2.53-29.97-.22-2.38-.97-4.72-1.7-8.09-6.66,3.9-12.83,7.12-18.58,10.96-19.67,13.14-39.24,26.43-58.68,39.9-1.69,1.17-3.1,4-3.13,6.08-.25,18.36-.22,36.73-.06,55.09.02,2.07.92,4.56,2.27,6.11,4.73,5.45,5.81,11.61,5.05,18.54-1.83,16.73-3.46,33.49-5.11,50.24-.16,1.67-.57,3.8.21,5.01,3.8,5.84,1.65,11.72.57,17.59-6.34,34.6-13.53,69.07-15.43,104.32-1.28,23.7-5.79,46.87-11.11,69.95-3.06,13.26-4.95,26.78-7.54,40.15-.83,4.26-2.23,8.42-3.37,12.62-.95-.15-1.91-.3-2.86-.45.68-9.28,1.35-18.56,2.03-27.84-.28-.03-.56-.05-.85-.08-1.61,10.21-3.01,20.46-4.98,30.61-.53,2.75-2.94,5.08-4.19,7.75-1.4,2.98-2.93,6.02-3.56,9.21-1.03,5.17-.45,10.85-2.3,15.63-1.71,4.44-4.89,9.61-8.86,11.64-12.3,6.3-20.41,16.17-27.87,27.24-6.52,9.69-13.19,19.49-21.14,27.97-9.2,9.81-24.64,6.38-28.66-5.72-1.25-3.75-1.04-8.27-.46-12.28.82-5.65.03-10.2-4-14.6-2.27-2.48-4.07-6.26-4.29-9.58-.63-9.72-1.46-19.63-.24-29.22,3.06-24,6.89-47.91,11-71.76,4.78-27.77,10.26-55.41,15.29-83.14,3.84-21.21,7.8-42.42,11.06-63.72,3.78-24.67,7.1-49.42,10.04-74.21.56-4.73-1.56-9.8-2.54-14.69-.56-2.77-1.89-5.49-1.9-8.23-.07-11.36-.14-22.73.47-34.06.78-14.51,1.86-29.02,3.55-43.45.59-5.04,3.41-9.82,5.17-14.73,1.23-3.42,3.32-6.83,3.43-10.3.61-18.73.5-37.48,1.12-56.2.25-7.53,1.05-15.19,2.91-22.45,1.14-4.44,4.79-8.25,7.33-12.33,1.05-1.69,2.74-3.2,3.16-5.02,2.81-12.14,5.46-24.33,7.97-36.54,4.44-21.56,7.09-43.2,6.01-65.38-.44-9.01,2.98-18.15,4.18-27.3,1.49-11.38,2.07-22.89,3.79-34.23,2.32-15.28,5.34-30.45,8.12-45.66.95-5.2,1.76-10.46,3.22-15.53,2.38-8.27,4.3-16.86,8.07-24.5,8.27-16.74,17.71-32.9,26.38-49.46,2.87-5.49,4.47-11.64,7.29-17.17,3.4-6.67,7.4-13.04,11.26-19.46,3.3-5.49,7.01-10.75,10.12-16.35,4.66-8.39,8.94-16.65,15.89-23.86,5.3-5.5,7.16-14.34,10.44-21.75,2.06-4.66,3.88-9.42,5.91-14.1.6-1.37,1.26-2.91,2.35-3.84,6.09-5.24,11.91-10.94,18.6-15.27,6.72-4.35,15.56-1.56,19.7,5.49,2.02,3.43,3.47,4.88,7.87,3.44,8.07-2.64,16.78,2.56,19.05,10.85.88,3.23,1.4,6.77,1.11,10.09-1.23,13.93-3.55,27.81-4.06,41.76-.42,11.62.75,23.36,1.89,34.98,2.23,22.77,4.78,45.51,7.47,68.23,2.96,24.97,6.55,49.88,9.23,74.88,1.61,15.03,2,30.19,2.97,45.29,1.26,19.59,2.57,39.19,3.95,60.24ZM317.69,893.95c-.98,0-1.95,0-2.93,0-12.67,64-18.77,129.04-30.96,194.65,3.19-1.47,4.72-2.06,6.14-2.85,13.22-7.34,26.42-14.7,39.62-22.06,7.17-4,6.81-3.92,4.91-11.89-2.9-12.1-6.42-24.22-7.59-36.53-2.12-22.17-2.4-44.5-4-66.73-1.31-18.22-3.43-36.39-5.19-54.58ZM296.39,1165.19c-7.35-1.79-19.51,6.85-20.1,13.92,7.17-4.97,13.64-9.45,20.1-13.92Z"/>
      <path d="M786.63,946.14c-7.25,0-8.23-3.92-8.79-8.69-1.77-15.04-3.83-30.05-5.89-45.96-4.07,1.38-8.38,3.12-12.84,4.27-4.88,1.26-9.9,2.01-14.87,2.92-1.29.24-2.71-.01-3.93.39-22.03,7.13-43.5,15.84-61.98,29.88-20.49,15.57-43.11,27.13-65.63,39.13-10.39,5.54-20.72,3.55-30.3.59-15-4.64-28.71-.7-42.91,2.35-6.94,1.49-14.12,2.64-21.17,2.57-9.23-.08-15.84-6.06-17.11-13.76-1.34-8.12,3.09-14,11.5-18.75,21.41-12.07,42.74-24.32,63.59-37.32,63.63-39.68,128.67-76.71,196.73-108.36,7.78-3.62,14.58-9.38,21.7-14.34,11.14-7.76,22.17-15.67,33.25-23.52-.2-.44-.39-.88-.59-1.32-2.47.85-4.91,2.24-7.42,2.38-2.29.12-4.66-1.11-7-1.75,1.1-2.15,1.66-5.41,3.39-6.24,7.79-3.76,14.04-9.22,19.56-15.69.37-.43,1.09-.77,1.15-1.21,1.08-8.11,8.05-9.85,13.85-12.64,16.7-8.04,33.13-16.81,50.35-23.58,20.33-8,37.39-21.21,55.86-32.14,27.17-16.08,53.56-33.66,82.84-45.75,19.18-7.92,39.01-14.33,58.72-20.89,4.3-1.43,9.44-1.3,14.02-.67,10.54,1.44,16.94,12.81,12.2,22.99-4.99,10.72-8.29,23.11-21.15,28.26-1.54.62-2.69,3.1-3.3,4.96-1.89,5.78-5.93,9.41-10.89,12.55-4.42,2.79-8.42,6.22-12.66,9.3-15.32,11.14-29.19,24.06-45.8,33.69-28.62,16.58-56.42,34.59-84.43,52.21-1.61,1.01-3.05,4.02-2.83,5.9,1.02,8.61-2.55,14.6-9.44,19.17-9.3,6.17-18.67,12.24-27.74,18.73-2.23,1.6-3.46,4.63-5.04,7.08-2.95,4.54-5.1,9.89-8.89,13.54-8.02,7.72-17.01,14.43-25.31,21.88-2.01,1.8-3.76,4.74-4.13,7.36-1.67,11.78-3.74,23.63-3.84,35.47-.09,11.45,2.13,22.92,3.17,34.39.43,4.69,1.07,9.5.52,14.13-5.4,45.29-2.48,90.78-2.72,136.16-.09,17.53,4.43,35.21,8,52.59,2.2,10.71,1.45,20.31-3.75,29.8-1.01,1.84-1.41,4.25-1.36,6.38.21,9.27.82,18.53,1.04,27.8.18,7.49,2.8,13.69,7.5,19.64,2.91,3.67,3.97,8.85,5.7,13.41,1.47,3.89,2.7,7.87,4.09,11.79.37,1.05.79,2.79,1.46,2.93,7.33,1.56,6.36,7.93,8.36,12.96,3.49,8.78,5.16,17.68,4.66,26.98-.95,17.71-7.57,31.98-23.85,41.14-21.6,12.16-42.76,25.06-60.87,42.33-9.44,9-20.18,10.12-31.96,4.64-7.25-3.37-11.3-8.66-11.71-16.62-.16-3.02-.35-6.1.05-9.07,1.28-9.37,2.74-18.55-1.61-27.78-1.36-2.89-.34-7.09.11-10.62,1.74-13.48,4.33-26.89,5.42-40.41,1.64-20.36,1.97-40.82,3.42-61.2,1.62-22.63,4-45.21,5.79-67.83.75-9.42.88-18.9,1.14-28.35.04-1.42-.4-3.1-1.2-4.26-4.45-6.48-4.94-13.67-4.59-21.2.7-15.11,1.77-30.24,1.53-45.34-.29-18.16,1.09-35.96,4.93-53.77,2.45-11.36,2.63-23.21,3.9-35.61Z"/>
      <path d="M1768.09,497.22c2.57-2.01,5.12-4.15,7.82-6.08,4.91-3.49,9.74-7.12,14.93-10.15,3.52-2.06,8.02-1.94,10.23,1.65,1.49,2.43,1.51,6.44.81,9.41-2.52,10.63-5.39,21.19-8.59,31.63-1.94,6.32-2.93,13.2-9.96,16.95-4.25,2.27-7.69,6.04-11.55,9.06-5.34,4.18-10.82,5.67-17.33,2.01-1.54-.86-5.31.09-6.72,1.52-9.8,9.95-19.04,20.45-28.89,30.35-4.89,4.92-10.35,9.43-16.09,13.34-41.22,28.05-79.54,59.84-118.38,90.97-4.46,3.58-4.73,7.82-1.75,11.97,4.01,5.58,3.28,10.65.48,16.43-4.59,9.46-9.88,18.76-8.59,30.08.29,2.5-1.35,5.56-2.86,7.87-5.98,9.22-4.13,19.65-5.74,30.91,2.48-1.23,3.97-1.77,5.23-2.63,14.05-9.61,28.04-19.33,42.12-28.91,6.73-4.57,13.74-8.73,20.39-13.4,6.15-4.32,11.82-9.34,18.02-13.58,9.65-6.6,19.25-13.27,31.67-14.01,3.54-.21,7.13-2.26,10.38-4.04,8.2-4.5,15.97-8.95,22.5-16.52,13.81-16.02,29.03-30.87,44.35-45.49,5.59-5.34,12.81-9.26,19.81-12.76,7.48-3.74,15.26,2.69,14.23,11.15-.8,6.55-2.11,13.06-2.58,19.63-.38,5.36.32,10.33,6.19,13.45,3.89,2.07,2.39,8.41-1.15,13.02-6.53,8.49-15.49,16.73-17.82,26.43-2.91,12.15-11.67,16.69-19.54,22.41-42.56,30.93-85.54,61.27-128.37,91.83-13.25,9.45-26.36,19.11-39.77,28.33-16.03,11.02-30.21,24.08-42.75,38.83-6.2,7.29-11.4,15.46-16.73,23.45-3.31,4.96-6.52,6.23-12.16,4.78-1.42-.36-4.05,1.22-5.08,2.66-2.42,3.35-4.53,2.95-6.78.25-10.37-12.47-15.1-26.73-13.25-42.95.96-8.45,2.29-16.85,3.32-25.3.17-1.43.18-3.35-.61-4.36-7-9.04-4.38-19.15-3.33-29.01.89-8.27,2.37-16.48,3.3-24.75.24-2.12.07-4.81-1.06-6.46-4.66-6.79-3.88-14.07-2.46-21.37,6.98-35.82,14.89-71.49,20.84-107.48,3.73-22.54,4.8-45.53,6.65-68.35,1.49-18.45,1.81-37,6.28-55.11.45-1.82-.39-4.48-1.54-6.09-5.81-8.12-6.17-16.34.24-23.9,3.1-3.66,3.71-7.02,2.55-11.42-1.69-6.39-3.39-12.84-4.32-19.37-1.38-9.76.21-19.46,7.7-26.18,10.09-9.05,20.45-18.3,32.09-25.04,33.79-19.58,64.96-43.01,97.66-64.16,9.98-6.45,20.45-12.19,30.89-17.89,2.2-1.2,5.73-1.74,7.8-.77,1.43.67,1.41,4.46,1.98,6.87.17.69.17,1.43.33,3.01,2.56-1.28,4.67-2.33,6.77-3.39,6.14-3.1,11.62-6.8,19.23-7.36,5.66-.42,11-5.42,16.47-8.4,8.45-4.6,16.59-9.91,25.41-13.59,7.56-3.16,15.85-4.69,23.93-6.37,1.57-.33,5.24,1.93,5.29,3.12.23,5.32,4.19,6.66,7.63,8.94,1.74,1.15,2.84,3.28,4.26,4.93,1.31,1.53,2.41,3.47,4.07,4.43,3.87,2.24,4.09,4.99,1.21,7.75-2.88,2.76-2.79,4.71-.01,7.46,2.65,2.61,2.14,5.61-.85,7.77-4.58,3.31-9.16,6.67-14.02,9.54-17.42,10.26-34.83,20.53-52.47,30.39-17.14,9.58-34.67,18.46-51.82,28.03-9.08,5.07-17.7,10.95-26.52,16.47-2.61,1.63-4.85,3.16-4.58,7.05.12,1.77-1.6,4.38-3.23,5.45-9.98,6.52-19.52,14.51-30.49,18.47-9.99,3.61-17.64,9.79-26.08,15.26-6.86,4.45-9.08,10.27-7.2,18.31.16.69.33,1.49.12,2.12-4.17,13.08-8.45,26.13-12.59,39.22-2.83,8.96-2.4,10.08,5.01,15.87,1.32,1.03,2.59,2.12,3.82,3.13-3.18,5.61-6.25,11.01-9.31,16.4.5.42.99.85,1.49,1.27,1.32-.44,2.76-.68,3.95-1.36,6.75-3.83,13.45-7.73,20.14-11.67,12.01-7.08,23.92-14.33,36.06-21.18,1.98-1.12,4.93-.52,7.43-.71,2.18-.17,4.82.41,6.46-.61,24.53-15.38,48.97-30.9,73.33-46.55,7.11-4.57,13.99-9.53,20.79-14.56,4.92-3.64,6.54-3.66,11.27,1.66ZM1625.88,822.93c.31.45.61.9.92,1.35,1.33-.83,2.71-1.6,3.98-2.51,18.96-13.48,37.91-26.99,56.87-40.47,22.06-15.67,44.16-31.28,66.17-47.03,1.79-1.28,2.98-3.4,4.45-5.14l-1.71-1.63c-43.56,31.81-87.12,63.62-130.68,95.43ZM1701.19,543.46c-.42-.57-.84-1.13-1.27-1.7-5.71,3.77-11.41,7.54-17.12,11.31,7.65-.86,13.98-3.72,18.38-9.62Z"/>
      <path d="M632.93,1181.2c-.68-9.21-1.54-18.41-1.99-27.63-1.44-29.45-3.09-58.91-3.76-88.38-.12-5.3,4.19-10.65,6.25-16.06,1.5-3.92,2.65-7.98,3.98-11.96,1.69-5.1,2.45-10.81,5.31-15.15,6.23-9.46,13.69-18.1,20.33-27.31,6.63-9.19,13.16-18.47,19.18-28.07,4.7-7.49,11.43-11.95,19.24-15.18,4.53-1.87,8.76-1.08,12.74,2.07,3.54,2.8,7.51,5.05,11.26,7.58,3.41,2.3,5.04,4.76,2.08,8.91-1.37,1.92-1.66,4.87-1.75,7.37-.36,10.1-.51,20.21-.63,30.32-.06,4.87-.79,9.98.38,14.58,2.64,10.42,6.44,20.54,9.4,30.88.78,2.72.74,5.94.15,8.73-4.21,19.72-9.29,39.04-8.32,59.77,1.62,34.58,1.21,69.19-2.57,103.78-1.5,13.72.4,27.92,1.7,41.81,2.47,26.34,3,52.63-2.82,78.52-2.95,13.12-.93,25.56,1.34,38.21.72,4.02.85,7.16-2.01,10.98-2.61,3.5-2.57,8.88-4.18,13.26-.7,1.91-2.44,4.7-3.95,4.86-15.59,1.7-30.04-.86-41.94-12.26-1.93-1.84-4.76-3.46-7.34-3.76-8.88-1.03-15.54-5.49-21.1-12.09-14.65-17.39-25.23-37.2-34.55-57.78-3.9-8.61-7.84-17.21-11.95-25.72-1.08-2.24-2.87-4.15-5.26-7.51-.32,2.95-.48,4.17-.57,5.38-1.94,26.02-4.32,52.01-5.67,78.06-1.52,29.12-8.64,57.15-14.95,85.38-1.56,6.98-2.86,14.03-3.9,21.11-2.1,14.4-11.83,23.47-22.06,32.23-1.71,1.46-3.68,2.61-5.73,4.03-4.09-4.55-7.5-2.62-10.65,1.09-4.42,5.2-7.67,5.43-10.88-.52-2.39-4.44-4.11-9.85-4.17-14.85-.35-29.34.41-58.7-.37-88.03-.29-10.96-4.05-21.78-5.62-32.75-1.79-12.52-4.08-25.14-4.08-37.71,0-32.16,1.13-64.32,1.85-96.48.05-2.07-.09-4.36.7-6.18,4.01-9.26,2.58-18.57,2-28.26-.92-15.43.33-30.98.59-46.48.08-5.1.14-10.21-.17-15.29-1.18-19.13-1.29-38.19,2.19-57.15,1.04-5.69,3.38-10.27,8.04-13.83,1.88-1.43,3.33-3.57,4.6-5.62,8.52-13.73,25.1-13.92,33.94-.29,7.12,10.99,13.5,22.29,15.3,35.62.3,2.23,1.51,4.99,3.22,6.29,20.51,15.58,35.01,36.54,50.93,56.24,1.61,2,3.37,3.88,5.06,5.82.4-.19.8-.38,1.2-.57ZM643.24,1117.1c-2.56,21.39,1.27,74.91,5.8,84.68-1.9-27.77-3.81-55.63-5.8-84.68Z"/>
      <path d="M904.32,1004.36c1.24-23.64,1.99-48.06,3.92-72.38,2.16-27.16,8-53.72,21.14-77.78,12.01-21.99,27.44-41.89,46.32-58.39,8.3-7.26,19.47-11.24,29.31-16.74,2.26-1.26,4.8-2.27,6.6-4.02,8.13-7.91,16.89-8.28,25.88-1.27,3.16,2.46,7.15,3.84,10.6,5.97,4.3,2.65,8.55,5.39,12.62,8.37,29.02,21.25,44.49,51.35,54.89,84.67,8.7,27.85,8.96,56.65,9.36,85.43.09,6.8.4,13.61,1.04,20.38,4.35,45.41,4.7,90.73-4.76,135.58-4.33,20.53-9.97,40.86-20.09,59.47-7.48,13.77-17.71,24.97-32.84,30.74-1.4.53-2.92,1.21-4.36,1.15-10.6-.43-18.65,4.75-26.5,11.1-8.41,6.81-18.03,8.12-28.87,6.19-42.52-7.56-65.24-36.9-79.8-73.75-14.67-37.12-23.55-75.81-23.19-116.17.08-9.25-.8-18.51-1.28-28.55ZM1024.47,896.31c-.57.22-1.14.44-1.72.66-.38,1.21-.85,2.39-1.12,3.62-3.27,14.76-5.8,29.73-10.01,44.21-3.19,10.97-4.46,21.8-3.34,33,2.08,20.89,3.78,41.83,6.63,62.61,2.36,17.21,6.07,34.24,9.41,51.3.42,2.16,1.76,5.09,3.49,5.87,6.67,3.03,13.67,5.33,21.41,8.22-.51.56.3-.02.69-.81,4.22-8.55,7.45-17.29,7.09-27.12-.28-7.55-.19-15.15.32-22.69,1.98-29.2.76-58.13-4.99-86.94-4.24-21.25-9.31-42.09-20.34-60.99-2.23-3.81-5-7.3-7.53-10.94ZM1005.59,1071.68c-2.94-15.55-5.88-31.1-8.81-46.65-1.11,16.3,1.86,31.84,8.81,46.65Z"/>
      <path d="M1452.88,954.28c-8.99-4.56-17.68-8.99-26.38-13.39-3.81-1.92-7.66-4.09-11.19,1.04-8.68-10.42-17.18-19.76-19.72-33.18-1.23-6.53-4.8-12.62-7.37-18.89-1.57-3.83-3.24-7.61-4.89-11.41-.97-2.24-1.71-4.64-3.02-6.67-8.29-12.86-16.71-25.64-25.11-38.42-.59-.9-1.39-1.66-2.79-3.29-.31,2.25-.68,3.59-.65,4.92.21,10.59.62,21.18.68,31.77.03,4.52-.05,9.18-1.1,13.53-4.33,17.92-.76,35.38,2.8,52.78,2.8,13.69,6.1,27.28,9.61,40.81,1.51,5.82,3.37,11.8,6.39,16.92,4.32,7.31,3.37,14.13-1.01,20.16-4.6,6.33-12.03,6.59-19.2,5.31-11.16-1.99-22.2-4.48-33.5-.3-1.42.52-4.75-1.56-5.8-3.28-1.27-2.08-1.8-5.21-1.36-7.65,1.87-10.16-.27-19.95-1.96-29.83-.51-2.98-1.2-6.11-.77-9.02,1.21-8.12-1.89-14.93-7.46-19.79-9.69-8.46-11.18-19.83-12.97-31.17-3.52-22.23-5.14-44.88-10.38-66.68-5.74-23.9-6.12-48.3-10.33-72.22-3.17-18.01-5.2-35.85-4.74-54.12.53-20.94,4.08-41.41,8.9-61.65,2.55-10.7,1.05-20.39-2.49-30.46-2.09-5.93-3.06-12.45-3.39-18.77-.91-17.15.32-34.29,8.37-49.75,5.82-11.18,13.16-21.62,20.39-32,4.49-6.45,10.98-9.98,19.24-7.59,8.42,2.43,11.87,9.11,12.98,16.99,1,7.09.98,14.31,1.65,21.45.18,1.94.73,4.22,1.94,5.62,3.99,4.62,5.34,9.89,5.02,15.79-.18,3.4.21,6.91-.46,10.2-3.54,17.45.49,33.82,6.75,49.89,3.23,8.28,6.23,16.69,10.17,24.63,3.89,7.85,8.92,15.12,13.26,22.75,1.56,2.74,2.64,5.76,3.79,8.71,5.36,13.73,10.63,27.49,16.03,41.21.64,1.63,1.86,3.03,2.81,4.54.58-.08,1.15-.15,1.73-.23.94-7.57,1.91-15.13,2.79-22.7.08-.68-.17-1.8-.64-2.07-6.83-3.96-4.04-9.86-2.9-15.17,6.7-31.26,14.05-62.39,20.04-93.77,1.56-8.17-.28-17.21-1.69-25.66-1.78-10.6-1.09-19.54,4.95-29.5,12.99-21.45,23.87-44.18,35.52-66.44,3.94-7.54,7.39-15.35,11.56-22.75,1-1.77,3.86-3.05,6.07-3.43,3.1-.54,6.53-.52,7.81,3.69,1.42,4.7,2.83,9.43,4.68,13.97,1.82,4.45,4.3,8.62,6.26,13.02.88,1.98,1.87,4.27,1.68,6.31-1.7,17.69-3.79,35.35-5.45,53.04-.37,3.98.69,8.07.77,12.12.15,7.91.67,15.88-.03,23.73-1.41,15.81-3.51,31.57-5.39,47.34-.38,3.19-.99,6.35-1.51,9.52-1.53,9.43-2.99,18.26,1.13,28.11,7.95,18.96,3.53,38.71-.12,58.06-.43,2.27-1.87,4.76-3.6,6.3-7.46,6.62-9.67,15.6-11.68,24.67-4.79,21.6-5,43.32-3.76,65.41.9,15.91,3.89,31.27,6.22,46.85,2.32,15.5,3.9,31.15,4.92,46.79.45,6.87.49,14.08-6.27,19.59-2.77,2.26-2.87,7.74-4.3,11.72-.29.81-1.08,1.44-1.53,2.01ZM1413,582.59c.74.05,1.47.09,2.21.14.4-6.32.8-12.63,1.19-18.95-.65-.04-1.3-.08-1.95-.12-5.22,6.02-1.64,12.58-1.45,18.93Z"/>
      <path d="M1199.92,570.69c3.24-2.75,5.94-5.21,8.82-7.44,3.91-3.03,10.24-2.76,11.37.95,1.73,5.73,3.83,12.05,2.99,17.71-2.11,14.18-5.88,28.11-8.8,42.18-1.19,5.73-2.39,11.54-2.7,17.36-.21,3.97,1.13,8.01,1.75,12.03.63,4.07,1.74,8.14,1.75,12.21.07,21.2-.26,42.4-.23,63.6.04,24.59,6.12,48.31,11.2,72.13,3.82,17.89,8.43,35.61,12.88,53.36,4.14,16.49,8.9,32.84,12.76,49.4,5.58,23.93,10.47,48.02,15.99,71.96.74,3.22,2.85,6.62,5.32,8.84,7.74,6.94,11.91,15.53,13.35,25.6,1.08,7.54.28,14.38-5.35,20.55-5.85,6.41-8.18,14.55-9.59,23.24-.82,5.02-3.55,10.52-7.1,14.16-8.47,8.69-18.26,15.87-29.96,20.01-2.82,1-5.7,2.31-8.04,4.14-6.41,4.99-13.37,7.5-21.59,7.05-2.66-.15-5.48,1.15-8.1,2.13-13.07,4.91-24.52-3.24-22.73-17.12,1.65-12.71,5.61-25.14,7.08-37.86,1.62-13.98,4.94-28.01,1.74-42.28-.73-3.28-.37-6.79-.6-10.19-1.34-19.59-1.72-39.31-4.39-58.71-1.81-13.17-6.5-26.02-10.55-38.8-4.27-13.48-10-26.51-13.85-40.09-5.87-20.71-10.63-41.73-15.98-62.59-.74-2.9-1.8-5.82-3.28-8.41-7.41-12.94-14.3-26.16-25.1-36.93-7.67-7.65-7.85-15.21-3.02-24.96,8.29-16.73,16.38-33.56,24.47-50.39,2.71-5.64,3.46-11.54,1.62-17.66-1.24-4.12-.49-7.66,2.58-10.96,14.3-15.36,24.72-33.31,34.98-51.49,5.68-10.07,13.07-19.2,20.03-28.51,2.76-3.69,6.38-2.93,8.49,1.22.58,1.15.95,2.4,1.79,4.57Z"/>
    </g>
  </g>
  <g id="Calque_2">
    <g>
      <path class="cls-1" d="M406.37,1013.42c7.22-2.42,13.1-5.34,19.29-6.31,21.58-3.37,40.12-15.48,61.06-20.53,3.46-.83,7.08-1.31,10.63-1.35,7.33-.09,12.87,3.34,15.67,10.1,2.87,6.95,1.75,13.94-4.02,18.69-6.82,5.62-14.35,10.46-21.95,15-9.18,5.49-18.34,10.22-25.61,18.97-6.33,7.62-16.15,12.3-24.23,18.54-2.75,2.13-4.76,5.19-7.31,7.61-5.28,5.03-10.36,10.38-16.18,14.72-3.72,2.78-5.82,5.29-5.46,10.1,1.99,26.22,3.25,52.5,5.76,78.66,3.89,40.65,8.77,81.2,12.88,121.83,3.91,38.74,8.18,77.47,10.72,116.31,1.47,22.58.09,45.37-.48,68.06-.34,13.6-2.08,27.16-2.36,40.76-.48,23.3-7.62,44.12-21.64,62.63-7.02,9.27-12.48,10.91-23.65,7.88-2.11-.57-4.46-.53-6.69-.42-9.21.46-16.3-4.95-17.65-14.04-.64-4.28-.61-8.67-.84-13.01-1.05-19.63.33-39.77-3.72-58.76-5.8-27.27-1.65-54.67-5.08-81.85-2.27-17.96-2.08-36.23-3.01-54.37-.37-7.24.66-13.87,6.41-19.21,1.36-1.26,1.88-4.11,1.77-6.17-.98-19.07-1.98-38.15-3.37-57.19-1.31-17.92-3.33-35.78-4.63-53.7-1.5-20.75-2.48-41.54-3.84-62.3-.65-10-1.59-19.99-2.53-29.97-.22-2.38-.97-4.72-1.7-8.09-6.66,3.9-12.83,7.12-18.58,10.96-19.67,13.14-39.24,26.43-58.68,39.9-1.69,1.17-3.1,4-3.13,6.08-.25,18.36-.22,36.73-.06,55.09.02,2.07.92,4.56,2.27,6.11,4.73,5.45,5.81,11.61,5.05,18.54-1.83,16.73-3.46,33.49-5.11,50.24-.16,1.67-.57,3.8.21,5.01,3.8,5.84,1.65,11.72.57,17.59-6.34,34.6-13.53,69.07-15.43,104.32-1.28,23.7-5.79,46.87-11.11,69.95-3.06,13.26-4.95,26.78-7.54,40.15-.83,4.26-2.23,8.42-3.37,12.62-.95-.15-1.91-.3-2.86-.45.68-9.28,1.35-18.56,2.03-27.84-.28-.03-.56-.05-.85-.08-1.61,10.21-3.01,20.46-4.98,30.61-.53,2.75-2.94,5.08-4.19,7.75-1.4,2.98-2.93,6.02-3.56,9.21-1.03,5.17-.45,10.85-2.3,15.63-1.71,4.44-4.89,9.61-8.86,11.64-12.3,6.3-20.41,16.17-27.87,27.24-6.52,9.69-13.19,19.49-21.14,27.97-9.2,9.81-24.64,6.38-28.66-5.72-1.25-3.75-1.04-8.27-.46-12.28.82-5.65.03-10.2-4-14.6-2.27-2.48-4.07-6.26-4.29-9.58-.63-9.72-1.46-19.63-.24-29.22,3.06-24,6.89-47.91,11-71.76,4.78-27.77,10.26-55.41,15.29-83.14,3.84-21.21,7.8-42.42,11.06-63.72,3.78-24.67,7.1-49.42,10.04-74.21.56-4.73-1.56-9.8-2.54-14.69-.56-2.77-1.89-5.49-1.9-8.23-.07-11.36-.14-22.73.47-34.06.78-14.51,1.86-29.02,3.55-43.45.59-5.04,3.41-9.82,5.17-14.73,1.23-3.42,3.32-6.83,3.43-10.3.61-18.73.5-37.48,1.12-56.2.25-7.53,1.05-15.19,2.91-22.45,1.14-4.44,4.79-8.25,7.33-12.33,1.05-1.69,2.74-3.2,3.16-5.02,2.81-12.14,5.46-24.33,7.97-36.54,4.44-21.56,7.09-43.2,6.01-65.38-.44-9.01,2.98-18.15,4.18-27.3,1.49-11.38,2.07-22.89,3.79-34.23,2.32-15.28,5.34-30.45,8.12-45.66.95-5.2,1.76-10.46,3.22-15.53,2.38-8.27,4.3-16.86,8.07-24.5,8.27-16.74,17.71-32.9,26.38-49.46,2.87-5.49,4.47-11.64,7.29-17.17,3.4-6.67,7.4-13.04,11.26-19.46,3.3-5.49,7.01-10.75,10.12-16.35,4.66-8.39,8.94-16.65,15.89-23.86,5.3-5.5,7.16-14.34,10.44-21.75,2.06-4.66,3.88-9.42,5.91-14.1.6-1.37,1.26-2.91,2.35-3.84,6.09-5.24,11.91-10.94,18.6-15.27,6.72-4.35,15.56-1.56,19.7,5.49,2.02,3.43,3.47,4.88,7.87,3.44,8.07-2.64,16.78,2.56,19.05,10.85.88,3.23,1.4,6.77,1.11,10.09-1.23,13.93-3.55,27.81-4.06,41.76-.42,11.62.75,23.36,1.89,34.98,2.23,22.77,4.78,45.51,7.47,68.23,2.96,24.97,6.55,49.88,9.23,74.88,1.61,15.03,2,30.19,2.97,45.29,1.26,19.59,2.57,39.19,3.95,60.24ZM307.49,885.13c-.98,0-1.95,0-2.93,0-12.67,64-18.77,129.04-30.96,194.65,3.19-1.47,4.72-2.06,6.14-2.85,13.22-7.34,26.42-14.7,39.62-22.06,7.17-4,6.81-3.92,4.91-11.89-2.9-12.1-6.42-24.22-7.59-36.53-2.12-22.17-2.4-44.5-4-66.73-1.31-18.22-3.43-36.39-5.19-54.58ZM286.19,1156.38c-7.35-1.79-19.51,6.85-20.1,13.92,7.17-4.97,13.64-9.45,20.1-13.92Z"/>
      <path class="cls-1" d="M776.43,937.33c-7.25,0-8.23-3.92-8.79-8.69-1.77-15.04-3.83-30.05-5.89-45.96-4.07,1.38-8.38,3.12-12.84,4.27-4.88,1.26-9.9,2.01-14.87,2.92-1.29.24-2.71-.01-3.93.39-22.03,7.13-43.5,15.84-61.98,29.88-20.49,15.57-43.11,27.13-65.63,39.13-10.39,5.54-20.72,3.55-30.3.59-15-4.64-28.71-.7-42.91,2.35-6.94,1.49-14.12,2.64-21.17,2.57-9.23-.08-15.84-6.06-17.11-13.76-1.34-8.12,3.09-14,11.5-18.75,21.41-12.07,42.74-24.32,63.59-37.32,63.63-39.68,128.67-76.71,196.73-108.36,7.78-3.62,14.58-9.38,21.7-14.34,11.14-7.76,22.17-15.67,33.25-23.52-.2-.44-.39-.88-.59-1.32-2.47.85-4.91,2.24-7.42,2.38-2.29.12-4.66-1.11-7-1.75,1.1-2.15,1.66-5.41,3.39-6.24,7.79-3.76,14.04-9.22,19.56-15.69.37-.43,1.09-.77,1.15-1.21,1.08-8.11,8.05-9.85,13.85-12.64,16.7-8.04,33.13-16.81,50.35-23.58,20.33-8,37.39-21.21,55.86-32.14,27.17-16.08,53.56-33.66,82.84-45.75,19.18-7.92,39.01-14.33,58.72-20.89,4.3-1.43,9.44-1.3,14.02-.67,10.54,1.44,16.94,12.81,12.2,22.99-4.99,10.72-8.29,23.11-21.15,28.26-1.54.62-2.69,3.1-3.3,4.96-1.89,5.78-5.93,9.41-10.89,12.55-4.42,2.79-8.42,6.22-12.66,9.3-15.32,11.14-29.19,24.06-45.8,33.69-28.62,16.58-56.42,34.59-84.43,52.21-1.61,1.01-3.05,4.02-2.83,5.9,1.02,8.61-2.55,14.6-9.44,19.17-9.3,6.17-18.67,12.24-27.74,18.73-2.23,1.6-3.46,4.63-5.04,7.08-2.95,4.54-5.1,9.89-8.89,13.54-8.02,7.72-17.01,14.43-25.31,21.88-2.01,1.8-3.76,4.74-4.13,7.36-1.67,11.78-3.74,23.63-3.84,35.47-.09,11.45,2.13,22.92,3.17,34.39.43,4.69,1.07,9.5.52,14.13-5.4,45.29-2.48,90.78-2.72,136.16-.09,17.53,4.43,35.21,8,52.59,2.2,10.71,1.45,20.31-3.75,29.8-1.01,1.84-1.41,4.25-1.36,6.38.21,9.27.82,18.53,1.04,27.8.18,7.49,2.8,13.69,7.5,19.64,2.91,3.67,3.97,8.85,5.7,13.41,1.47,3.89,2.7,7.87,4.09,11.79.37,1.05.79,2.79,1.46,2.93,7.33,1.56,6.36,7.93,8.36,12.96,3.49,8.78,5.16,17.68,4.66,26.98-.95,17.71-7.57,31.98-23.85,41.14-21.6,12.16-42.76,25.06-60.87,42.33-9.44,9-20.18,10.12-31.96,4.64-7.25-3.37-11.3-8.66-11.71-16.62-.16-3.02-.35-6.1.05-9.07,1.28-9.37,2.74-18.55-1.61-27.78-1.36-2.89-.34-7.09.11-10.62,1.74-13.48,4.33-26.89,5.42-40.41,1.64-20.36,1.97-40.82,3.42-61.2,1.62-22.63,4-45.21,5.79-67.83.75-9.42.88-18.9,1.14-28.35.04-1.42-.4-3.1-1.2-4.26-4.45-6.48-4.94-13.67-4.59-21.2.7-15.11,1.77-30.24,1.53-45.34-.29-18.16,1.09-35.96,4.93-53.77,2.45-11.36,2.63-23.21,3.9-35.61Z"/>
      <path class="cls-1" d="M1757.89,488.41c2.57-2.01,5.12-4.15,7.82-6.08,4.91-3.49,9.74-7.12,14.93-10.15,3.52-2.06,8.02-1.94,10.23,1.65,1.49,2.43,1.51,6.44.81,9.41-2.52,10.63-5.39,21.19-8.59,31.63-1.94,6.32-2.93,13.2-9.96,16.95-4.25,2.27-7.69,6.04-11.55,9.06-5.34,4.18-10.82,5.67-17.33,2.01-1.54-.86-5.31.09-6.72,1.52-9.8,9.95-19.04,20.45-28.89,30.35-4.89,4.92-10.35,9.43-16.09,13.34-41.22,28.05-79.54,59.84-118.38,90.97-4.46,3.58-4.73,7.82-1.75,11.97,4.01,5.58,3.28,10.65.48,16.43-4.59,9.46-9.88,18.76-8.59,30.08.29,2.5-1.35,5.56-2.86,7.87-5.98,9.22-4.13,19.65-5.74,30.91,2.48-1.23,3.97-1.77,5.23-2.63,14.05-9.61,28.04-19.33,42.12-28.91,6.73-4.57,13.74-8.73,20.39-13.4,6.15-4.32,11.82-9.34,18.02-13.58,9.65-6.6,19.25-13.27,31.67-14.01,3.54-.21,7.13-2.26,10.38-4.04,8.2-4.5,15.97-8.95,22.5-16.52,13.81-16.02,29.03-30.87,44.35-45.49,5.59-5.34,12.81-9.26,19.81-12.76,7.48-3.74,15.26,2.69,14.23,11.15-.8,6.55-2.11,13.06-2.58,19.63-.38,5.36.32,10.33,6.19,13.45,3.89,2.07,2.39,8.41-1.15,13.02-6.53,8.49-15.49,16.73-17.82,26.43-2.91,12.15-11.67,16.69-19.54,22.41-42.56,30.93-85.54,61.27-128.37,91.83-13.25,9.45-26.36,19.11-39.77,28.33-16.03,11.02-30.21,24.08-42.75,38.83-6.2,7.29-11.4,15.46-16.73,23.45-3.31,4.96-6.52,6.23-12.16,4.78-1.42-.36-4.05,1.22-5.08,2.66-2.42,3.35-4.53,2.95-6.78.25-10.37-12.47-15.1-26.73-13.25-42.95.96-8.45,2.29-16.85,3.32-25.3.17-1.43.18-3.35-.61-4.36-7-9.04-4.38-19.15-3.33-29.01.89-8.27,2.37-16.48,3.3-24.75.24-2.12.07-4.81-1.06-6.46-4.66-6.79-3.88-14.07-2.46-21.37,6.98-35.82,14.89-71.49,20.84-107.48,3.73-22.54,4.8-45.53,6.65-68.35,1.49-18.45,1.81-37,6.28-55.11.45-1.82-.39-4.48-1.54-6.09-5.81-8.12-6.17-16.34.24-23.9,3.1-3.66,3.71-7.02,2.55-11.42-1.69-6.39-3.39-12.84-4.32-19.37-1.38-9.76.21-19.46,7.7-26.18,10.09-9.05,20.45-18.3,32.09-25.04,33.79-19.58,64.96-43.01,97.66-64.16,9.98-6.45,20.45-12.19,30.89-17.89,2.2-1.2,5.73-1.74,7.8-.77,1.43.67,1.41,4.46,1.98,6.87.17.69.17,1.43.33,3.01,2.56-1.28,4.67-2.33,6.77-3.39,6.14-3.1,11.62-6.8,19.23-7.36,5.66-.42,11-5.42,16.47-8.4,8.45-4.6,16.59-9.91,25.41-13.59,7.56-3.16,15.85-4.69,23.93-6.37,1.57-.33,5.24,1.93,5.29,3.12.23,5.32,4.19,6.66,7.63,8.94,1.74,1.15,2.84,3.28,4.26,4.93,1.31,1.53,2.41,3.47,4.07,4.43,3.87,2.24,4.09,4.99,1.21,7.75-2.88,2.76-2.79,4.71-.01,7.46,2.65,2.61,2.14,5.61-.85,7.77-4.58,3.31-9.16,6.67-14.02,9.54-17.42,10.26-34.83,20.53-52.47,30.39-17.14,9.58-34.67,18.46-51.82,28.03-9.08,5.07-17.7,10.95-26.52,16.47-2.61,1.63-4.85,3.16-4.58,7.05.12,1.77-1.6,4.38-3.23,5.45-9.98,6.52-19.52,14.51-30.49,18.47-9.99,3.61-17.64,9.79-26.08,15.26-6.86,4.45-9.08,10.27-7.2,18.31.16.69.33,1.49.12,2.12-4.17,13.08-8.45,26.13-12.59,39.22-2.83,8.96-2.4,10.08,5.01,15.87,1.32,1.03,2.59,2.12,3.82,3.13-3.18,5.61-6.25,11.01-9.31,16.4.5.42.99.85,1.49,1.27,1.32-.44,2.76-.68,3.95-1.36,6.75-3.83,13.45-7.73,20.14-11.67,12.01-7.08,23.92-14.33,36.06-21.18,1.98-1.12,4.93-.52,7.43-.71,2.18-.17,4.82.41,6.46-.61,24.53-15.38,48.97-30.9,73.33-46.55,7.11-4.57,13.99-9.53,20.79-14.56,4.92-3.64,6.54-3.66,11.27,1.66ZM1615.67,814.11c.31.45.61.9.92,1.35,1.33-.83,2.71-1.6,3.98-2.51,18.96-13.48,37.91-26.99,56.87-40.47,22.06-15.67,44.16-31.28,66.17-47.03,1.79-1.28,2.98-3.4,4.45-5.14l-1.71-1.63c-43.56,31.81-87.12,63.62-130.68,95.43ZM1690.98,534.65c-.42-.57-.84-1.13-1.27-1.7-5.71,3.77-11.41,7.54-17.12,11.31,7.65-.86,13.98-3.72,18.38-9.62Z"/>
      <path class="cls-1" d="M622.73,1172.39c-.68-9.21-1.54-18.41-1.99-27.63-1.44-29.45-3.09-58.91-3.76-88.38-.12-5.3,4.19-10.65,6.25-16.06,1.5-3.92,2.65-7.98,3.98-11.96,1.69-5.1,2.45-10.81,5.31-15.15,6.23-9.46,13.69-18.1,20.33-27.31,6.63-9.19,13.16-18.47,19.18-28.07,4.7-7.49,11.43-11.95,19.24-15.18,4.53-1.87,8.76-1.08,12.74,2.07,3.54,2.8,7.51,5.05,11.26,7.58,3.41,2.3,5.04,4.76,2.08,8.91-1.37,1.92-1.66,4.87-1.75,7.37-.36,10.1-.51,20.21-.63,30.32-.06,4.87-.79,9.98.38,14.58,2.64,10.42,6.44,20.54,9.4,30.88.78,2.72.74,5.94.15,8.73-4.21,19.72-9.29,39.04-8.32,59.77,1.62,34.58,1.21,69.19-2.57,103.78-1.5,13.72.4,27.92,1.7,41.81,2.47,26.34,3,52.63-2.82,78.52-2.95,13.12-.93,25.56,1.34,38.21.72,4.02.85,7.16-2.01,10.98-2.61,3.5-2.57,8.88-4.18,13.26-.7,1.91-2.44,4.7-3.95,4.86-15.59,1.7-30.04-.86-41.94-12.26-1.93-1.84-4.76-3.46-7.34-3.76-8.88-1.03-15.54-5.49-21.1-12.09-14.65-17.39-25.23-37.2-34.55-57.78-3.9-8.61-7.84-17.21-11.95-25.72-1.08-2.24-2.87-4.15-5.26-7.51-.32,2.95-.48,4.17-.57,5.38-1.94,26.02-4.32,52.01-5.67,78.06-1.52,29.12-8.64,57.15-14.95,85.38-1.56,6.98-2.86,14.03-3.9,21.11-2.1,14.4-11.83,23.47-22.06,32.23-1.71,1.46-3.68,2.61-5.73,4.03-4.09-4.55-7.5-2.62-10.65,1.09-4.42,5.2-7.67,5.43-10.88-.52-2.39-4.44-4.11-9.85-4.17-14.85-.35-29.34.41-58.7-.37-88.03-.29-10.96-4.05-21.78-5.62-32.75-1.79-12.52-4.08-25.14-4.08-37.71,0-32.16,1.13-64.32,1.85-96.48.05-2.07-.09-4.36.7-6.18,4.01-9.26,2.58-18.57,2-28.26-.92-15.43.33-30.98.59-46.48.08-5.1.14-10.21-.17-15.29-1.18-19.13-1.29-38.19,2.19-57.15,1.04-5.69,3.38-10.27,8.04-13.83,1.88-1.43,3.33-3.57,4.6-5.62,8.52-13.73,25.1-13.92,33.94-.29,7.12,10.99,13.5,22.29,15.3,35.62.3,2.23,1.51,4.99,3.22,6.29,20.51,15.58,35.01,36.54,50.93,56.24,1.61,2,3.37,3.88,5.06,5.82.4-.19.8-.38,1.2-.57ZM633.04,1108.28c-2.56,21.39,1.27,74.91,5.8,84.68-1.9-27.77-3.81-55.63-5.8-84.68Z"/>
      <path class="cls-1" d="M894.11,995.54c1.24-23.64,1.99-48.06,3.92-72.38,2.16-27.16,8-53.72,21.14-77.78,12.01-21.99,27.44-41.89,46.32-58.39,8.3-7.26,19.47-11.24,29.31-16.74,2.26-1.26,4.8-2.27,6.6-4.02,8.13-7.91,16.89-8.28,25.88-1.27,3.16,2.46,7.15,3.84,10.6,5.97,4.3,2.65,8.55,5.39,12.62,8.37,29.02,21.25,44.49,51.35,54.89,84.67,8.7,27.85,8.96,56.65,9.36,85.43.09,6.8.4,13.61,1.04,20.38,4.35,45.41,4.7,90.73-4.76,135.58-4.33,20.53-9.97,40.86-20.09,59.47-7.48,13.77-17.71,24.97-32.84,30.74-1.4.53-2.92,1.21-4.36,1.15-10.6-.43-18.65,4.75-26.5,11.1-8.41,6.81-18.03,8.12-28.87,6.19-42.52-7.56-65.24-36.9-79.8-73.75-14.67-37.12-23.55-75.81-23.19-116.17.08-9.25-.8-18.51-1.28-28.55ZM1014.26,887.5c-.57.22-1.14.44-1.72.66-.38,1.21-.85,2.39-1.12,3.62-3.27,14.76-5.8,29.73-10.01,44.21-3.19,10.97-4.46,21.8-3.34,33,2.08,20.89,3.78,41.83,6.63,62.61,2.36,17.21,6.07,34.24,9.41,51.3.42,2.16,1.76,5.09,3.49,5.87,6.67,3.03,13.67,5.33,21.41,8.22-.51.56.3-.02.69-.81,4.22-8.55,7.45-17.29,7.09-27.12-.28-7.55-.19-15.15.32-22.69,1.98-29.2.76-58.13-4.99-86.94-4.24-21.25-9.31-42.09-20.34-60.99-2.23-3.81-5-7.3-7.53-10.94ZM995.38,1062.87c-2.94-15.55-5.88-31.1-8.81-46.65-1.11,16.3,1.86,31.84,8.81,46.65Z"/>
      <path class="cls-1" d="M1442.68,945.47c-8.99-4.56-17.68-8.99-26.38-13.39-3.81-1.92-7.66-4.09-11.19,1.04-8.68-10.42-17.18-19.76-19.72-33.18-1.23-6.53-4.8-12.62-7.37-18.89-1.57-3.83-3.24-7.61-4.89-11.41-.97-2.24-1.71-4.64-3.02-6.67-8.29-12.86-16.71-25.64-25.11-38.42-.59-.9-1.39-1.66-2.79-3.29-.31,2.25-.68,3.59-.65,4.92.21,10.59.62,21.18.68,31.77.03,4.52-.05,9.18-1.1,13.53-4.33,17.92-.76,35.38,2.8,52.78,2.8,13.69,6.1,27.28,9.61,40.81,1.51,5.82,3.37,11.8,6.39,16.92,4.32,7.31,3.37,14.13-1.01,20.16-4.6,6.33-12.03,6.59-19.2,5.31-11.16-1.99-22.2-4.48-33.5-.3-1.42.52-4.75-1.56-5.8-3.28-1.27-2.08-1.8-5.21-1.36-7.65,1.87-10.16-.27-19.95-1.96-29.83-.51-2.98-1.2-6.11-.77-9.02,1.21-8.12-1.89-14.93-7.46-19.79-9.69-8.46-11.18-19.83-12.97-31.17-3.52-22.23-5.14-44.88-10.38-66.68-5.74-23.9-6.12-48.3-10.33-72.22-3.17-18.01-5.2-35.85-4.74-54.12.53-20.94,4.08-41.41,8.9-61.65,2.55-10.7,1.05-20.39-2.49-30.46-2.09-5.93-3.06-12.45-3.39-18.77-.91-17.15.32-34.29,8.37-49.75,5.82-11.18,13.16-21.62,20.39-32,4.49-6.45,10.98-9.98,19.24-7.59,8.42,2.43,11.87,9.11,12.98,16.99,1,7.09.98,14.31,1.65,21.45.18,1.94.73,4.22,1.94,5.62,3.99,4.62,5.34,9.89,5.02,15.79-.18,3.4.21,6.91-.46,10.2-3.54,17.45.49,33.82,6.75,49.89,3.23,8.28,6.23,16.69,10.17,24.63,3.89,7.85,8.92,15.12,13.26,22.75,1.56,2.74,2.64,5.76,3.79,8.71,5.36,13.73,10.63,27.49,16.03,41.21.64,1.63,1.86,3.03,2.81,4.54.58-.08,1.15-.15,1.73-.23.94-7.57,1.91-15.13,2.79-22.7.08-.68-.17-1.8-.64-2.07-6.83-3.96-4.04-9.86-2.9-15.17,6.7-31.26,14.05-62.39,20.04-93.77,1.56-8.17-.28-17.21-1.69-25.66-1.78-10.6-1.09-19.54,4.95-29.5,12.99-21.45,23.87-44.18,35.52-66.44,3.94-7.54,7.39-15.35,11.56-22.75,1-1.77,3.86-3.05,6.07-3.43,3.1-.54,6.53-.52,7.81,3.69,1.42,4.7,2.83,9.43,4.68,13.97,1.82,4.45,4.3,8.62,6.26,13.02.88,1.98,1.87,4.27,1.68,6.31-1.7,17.69-3.79,35.35-5.45,53.04-.37,3.98.69,8.07.77,12.12.15,7.91.67,15.88-.03,23.73-1.41,15.81-3.51,31.57-5.39,47.34-.38,3.19-.99,6.35-1.51,9.52-1.53,9.43-2.99,18.26,1.13,28.11,7.95,18.96,3.53,38.71-.12,58.06-.43,2.27-1.87,4.76-3.6,6.3-7.46,6.62-9.67,15.6-11.68,24.67-4.79,21.6-5,43.32-3.76,65.41.9,15.91,3.89,31.27,6.22,46.85,2.32,15.5,3.9,31.15,4.92,46.79.45,6.87.49,14.08-6.27,19.59-2.77,2.26-2.87,7.74-4.3,11.72-.29.81-1.08,1.44-1.53,2.01ZM1402.79,573.77c.74.05,1.47.09,2.21.14.4-6.32.8-12.63,1.19-18.95-.65-.04-1.3-.08-1.95-.12-5.22,6.02-1.64,12.58-1.45,18.93Z"/>
      <path class="cls-1" d="M1189.72,561.88c3.24-2.75,5.94-5.21,8.82-7.44,3.91-3.03,10.24-2.76,11.37.95,1.73,5.73,3.83,12.05,2.99,17.71-2.11,14.18-5.88,28.11-8.8,42.18-1.19,5.73-2.39,11.54-2.7,17.36-.21,3.97,1.13,8.01,1.75,12.03.63,4.07,1.74,8.14,1.75,12.21.07,21.2-.26,42.4-.23,63.6.04,24.59,6.12,48.31,11.2,72.13,3.82,17.89,8.43,35.61,12.88,53.36,4.14,16.49,8.9,32.84,12.76,49.4,5.58,23.93,10.47,48.02,15.99,71.96.74,3.22,2.85,6.62,5.32,8.84,7.74,6.94,11.91,15.53,13.35,25.6,1.08,7.54.28,14.38-5.35,20.55-5.85,6.41-8.18,14.55-9.59,23.24-.82,5.02-3.55,10.52-7.1,14.16-8.47,8.69-18.26,15.87-29.96,20.01-2.82,1-5.7,2.31-8.04,4.14-6.41,4.99-13.37,7.5-21.59,7.05-2.66-.15-5.48,1.15-8.1,2.13-13.07,4.91-24.52-3.24-22.73-17.12,1.65-12.71,5.61-25.14,7.08-37.86,1.62-13.98,4.94-28.01,1.74-42.28-.73-3.28-.37-6.79-.6-10.19-1.34-19.59-1.72-39.31-4.39-58.71-1.81-13.17-6.5-26.02-10.55-38.8-4.27-13.48-10-26.51-13.85-40.09-5.87-20.71-10.63-41.73-15.98-62.59-.74-2.9-1.8-5.82-3.28-8.41-7.41-12.94-14.3-26.16-25.1-36.93-7.67-7.65-7.85-15.21-3.02-24.96,8.29-16.73,16.38-33.56,24.47-50.39,2.71-5.64,3.46-11.54,1.62-17.66-1.24-4.12-.49-7.66,2.58-10.96,14.3-15.36,24.72-33.31,34.98-51.49,5.68-10.07,13.07-19.2,20.03-28.51,2.76-3.69,6.38-2.93,8.49,1.22.58,1.15.95,2.4,1.79,4.57Z"/>
    </g>
  </g>
</svg>