<?xml version="1.0" encoding="UTF-8"?>
<svg xmlns="http://www.w3.org/2000/svg" version="1.1" viewBox="0 0 241.5 58.2">
  <defs>
    <style>
      .cls-1 {
        isolation: isolate;
      }
    </style>
  </defs>
  <!-- Generator: Adobe Illustrator 28.7.1, SVG Export Plug-In . SVG Version: 1.2.0 Build 142)  -->
  <g>
    <g id="Calque_2">
      <polygon points="44 31.4 37.2 38.1 30.4 31.4 34.9 31.4 34.9 16.2 39.5 16.2 39.5 31.4 44 31.4"/>
      <g class="cls-1">
        <g class="cls-1">
          <path d="M86.3,31.8v6.4h-10v-22h20.3c8.3,0,10.6,3.3,10.6,7.4v.6c0,4-2.4,7.6-10.6,7.6h-10.3ZM86.3,25.7h8.3c1.7,0,2.3-.7,2.3-1.7h0c0-1-.6-1.7-2.3-1.7h-8.3v3.4Z"/>
          <path d="M108.5,16.2h10v7.5h12.6v-7.5h10v22h-10v-8.1h-12.6v8.1h-10v-22Z"/>
        </g>
        <g class="cls-1">
          <path d="M160.6,15.8c14.6,0,16.6,6.5,16.6,10.9v.9c0,4.3-2.1,11-16.6,11h-1.4c-14.5,0-16.6-6.7-16.6-11v-.9c0-4.4,2.1-10.9,16.6-10.9h1.4ZM159.9,22.3c-5.7,0-7,2.5-7,4.6v.4c0,2.2,1.5,4.8,7,4.8s7-2.6,7-4.8v-.4c0-2.1-1.5-4.6-7-4.6Z"/>
          <path d="M186.5,23.1h-9.5v-6.9h28.9v6.9h-9.5v15.1h-10v-15.1Z"/>
        </g>
        <g class="cls-1">
          <path d="M224.9,15.8c14.6,0,16.6,6.5,16.6,10.9v.9c0,4.3-2.1,11-16.6,11h-1.4c-14.5,0-16.6-6.7-16.6-11v-.9c0-4.4,2.1-10.9,16.6-10.9h1.4ZM224.2,22.3c-5.7,0-7,2.5-7,4.6v.4c0,2.2,1.5,4.8,7,4.8s7-2.6,7-4.8v-.4c0-2.1-1.5-4.6-7-4.6Z"/>
        </g>
      </g>
    </g>
  </g>
</svg>