<?xml version="1.0" encoding="UTF-8"?>
<svg xmlns="http://www.w3.org/2000/svg" version="1.1" viewBox="0 0 294.7 58.2">
  <defs>
    <style>
      .cls-1 {
        isolation: isolate;
      }
    </style>
  </defs>
  <!-- Generator: Adobe Illustrator 28.7.1, SVG Export Plug-In . SVG Version: 1.2.0 Build 142)  -->
  <g>
    <g id="Calque_1">
      <g id="Calque_3">
        <polygon points="44 31.4 37.2 38.1 30.4 31.4 34.9 31.4 34.9 16.2 39.5 16.2 39.5 31.4 44 31.4"/>
      </g>
      <g id="Calque_2">
        <g class="cls-1">
          <g class="cls-1">
            <path d="M86.3,31.8v6.4h-10v-22h20.3c8.3,0,10.6,3.3,10.6,7.4v.6c0,4-2.4,7.6-10.6,7.6h-10.3ZM86.3,25.7h8.3c1.7,0,2.3-.7,2.3-1.7h0c0-1-.6-1.7-2.3-1.7h-8.3v3.4Z"/>
          </g>
          <g class="cls-1">
            <path d="M118.5,38.2h-10v-22h22.4c5.5,0,8.9,1.6,8.9,5.6v.3c0,3.3-3,4.6-4.8,5,3.1.6,4.9,2.5,4.9,5.4v3.3c0,1.3.2,1.8.4,2.2v.2h-10.2c-.2-.2-.2-.4-.2-.9v-2.6c0-2.4-1.1-3.8-4.3-3.8h-7.1v7.3ZM118.5,25.1h8.8c1.7,0,2.2-.7,2.2-1.6h0c0-.9-.6-1.6-2.2-1.6h-8.8v3.2Z"/>
          </g>
          <g class="cls-1">
            <path d="M158.7,15.8c14.6,0,16.6,6.5,16.6,10.9v.9c0,4.3-2.1,11-16.6,11h-1.4c-14.5,0-16.6-6.7-16.6-11v-.9c0-4.4,2.1-10.9,16.6-10.9h1.4ZM158,22.3c-5.7,0-7,2.5-7,4.6v.4c0,2.2,1.5,4.8,7,4.8s7-2.6,7-4.8v-.4c0-2.1-1.5-4.6-7-4.6Z"/>
            <path d="M175.9,28.2v-.2h9.6c0,.8.3,3.3,4.3,3.3h.1c3.5,0,4.4-2.1,4.4-4.4v-10.7h10v10.9c0,4.6-1.3,11.4-13.6,11.4h-2c-11.8,0-12.8-6.9-12.8-10.3Z"/>
          </g>
          <g class="cls-1">
            <path d="M231.8,16.2v5.8h-15.7v2.2h15.5v5.7h-15.5v2.4h15.9v5.9h-25.7v-22h25.5Z"/>
          </g>
          <g class="cls-1">
            <path d="M242.7,23.1h-9.5v-6.9h28.9v6.9h-9.5v15.1h-10v-15.1Z"/>
          </g>
          <g class="cls-1">
            <path d="M262.8,30.9v-.3h11.4c0,1,.5,2.7,4.4,2.7h.1c3.5,0,4.3-.9,4.3-1.8h0c0-.9-.4-1.7-4.6-1.8h-4.4c-8.8-.4-10.9-3.5-10.9-6.9v-.3c0-3.9,2.9-6.7,13.3-6.7h3.2c11.4,0,14,3.3,14,6.9v.2h-11.2c0-.8-.5-2-4.2-2h-.1c-3.4,0-3.9.6-3.9,1.4h0c0,.9.8,1.4,4.5,1.5h4.2c8.5.3,11.6,2.3,11.6,6.8v.4c0,3.8-2.3,7.6-14.4,7.6h-3.3c-12.8,0-14.1-4.9-14.1-7.7Z"/>
          </g>
        </g>
      </g>
    </g>
  </g>
</svg>