<?xml version="1.0" standalone="no"?>
<!DOCTYPE svg PUBLIC "-//W3C//DTD SVG 20010904//EN"
 "http://www.w3.org/TR/2001/REC-SVG-20010904/DTD/svg10.dtd">
<svg version="1.0" xmlns="http://www.w3.org/2000/svg"
 width="685.000000pt" height="195.000000pt" viewBox="0 0 685.000000 195.000000"
 preserveAspectRatio="xMidYMid meet">

<g transform="translate(0.000000,195.000000) scale(0.100000,-0.100000)"
fill="#000000" stroke="none">
<path d="M1567 1420 c-83 -21 -152 -74 -190 -145 -30 -56 -30 -164 0 -221 61
-115 191 -172 327 -144 53 11 134 60 143 86 2 6 -19 29 -46 52 l-50 42 -33
-20 c-40 -24 -116 -27 -158 -5 -86 44 -74 166 20 205 41 17 112 8 146 -19 l28
-22 50 51 51 51 -34 29 c-60 51 -178 78 -254 60z m178 -39 c22 -10 49 -26 60
-34 20 -16 19 -17 -17 -53 -37 -37 -38 -38 -58 -19 -26 23 -118 32 -160 15
-17 -7 -44 -28 -60 -47 -52 -58 -36 -149 33 -192 53 -32 107 -37 162 -12 50
22 65 19 99 -18 24 -26 13 -41 -52 -73 -66 -32 -169 -31 -235 1 -158 77 -193
267 -70 383 70 67 211 90 298 49z"/>
<path d="M4081 1415 c-127 -40 -163 -187 -65 -264 15 -12 58 -31 96 -42 70
-22 85 -39 48 -59 -26 -14 -60 3 -60 31 0 15 -5 19 -17 15 -10 -2 -44 -10 -76
-16 -57 -11 -58 -13 -52 -38 35 -144 227 -188 335 -77 60 62 50 170 -21 214
-13 7 -52 24 -88 36 -51 17 -66 26 -66 41 0 31 42 31 57 -1 9 -19 17 -25 32
-21 12 3 41 8 64 12 24 4 46 13 49 20 14 36 -33 111 -86 138 -42 22 -102 26
-150 11z m147 -35 c31 -19 72 -73 72 -97 0 -6 -23 -14 -51 -18 -45 -6 -52 -5
-65 14 -17 23 -63 28 -82 9 -16 -16 -15 -53 1 -66 6 -5 36 -17 65 -25 106 -32
149 -77 139 -149 -14 -107 -161 -161 -264 -97 -36 22 -68 72 -60 93 3 7 23 16
46 20 34 5 44 2 65 -19 14 -14 33 -25 43 -25 30 0 63 29 63 55 0 19 -9 26 -47
40 -95 33 -133 55 -153 87 -37 62 -15 137 52 178 45 27 131 27 176 0z"/>
<path d="M5550 1415 c-114 -32 -190 -118 -198 -226 -9 -116 40 -204 141 -253
105 -51 224 -42 316 25 l43 31 -48 49 c-27 27 -52 49 -57 49 -5 0 -20 -9 -34
-20 -19 -15 -41 -20 -85 -20 -55 0 -63 3 -93 33 -42 42 -51 74 -31 120 31 75
137 102 209 53 l35 -24 48 49 48 49 -23 24 c-55 58 -179 86 -271 61z m196 -39
c28 -13 55 -29 59 -36 4 -7 -6 -25 -24 -44 l-32 -33 -37 19 c-83 44 -206 3
-232 -77 -42 -126 119 -230 243 -157 27 16 28 16 63 -20 l36 -36 -44 -25
c-171 -101 -393 -7 -406 173 -5 68 8 113 48 168 64 89 214 120 326 68z"/>
<path d="M6016 1419 c-53 -13 -98 -42 -144 -95 -124 -140 -52 -356 136 -410
128 -38 270 25 329 145 26 53 24 164 -4 217 -33 63 -103 118 -171 138 -64 18
-88 18 -146 5z m168 -33 c76 -32 139 -112 152 -194 14 -86 -44 -195 -125 -237
-197 -101 -428 67 -371 270 16 56 81 132 135 156 49 22 161 25 209 5z"/>
<path d="M6002 1280 c-20 -13 -41 -38 -53 -65 -25 -57 -13 -111 32 -149 102
-86 249 -26 249 103 0 38 -5 49 -44 87 -40 41 -47 44 -97 44 -37 0 -65 -7 -87
-20z m169 -39 c31 -31 39 -46 39 -75 0 -115 -167 -161 -234 -64 -18 26 -21 90
-5 119 17 32 70 59 118 59 37 0 49 -6 82 -39z"/>
<path d="M6505 1421 c-42 -11 -66 -25 -99 -60 -24 -25 -30 -42 -34 -89 -4 -52
-1 -61 23 -90 26 -31 92 -72 115 -72 6 0 26 -7 45 -14 24 -10 33 -20 29 -30
-14 -35 -74 -23 -74 15 0 15 -5 19 -17 15 -10 -2 -44 -10 -75 -16 -63 -12 -67
-19 -44 -73 48 -116 223 -142 317 -48 93 93 49 207 -96 254 -56 18 -70 26 -70
42 0 30 49 28 53 -2 4 -26 6 -27 87 -9 59 12 60 13 58 44 -3 84 -123 157 -218
133z m136 -44 c33 -22 73 -83 63 -98 -2 -4 -25 -11 -50 -15 -39 -6 -47 -4 -60
15 -20 28 -68 28 -88 -1 -24 -34 -1 -58 78 -84 107 -34 150 -89 127 -164 -39
-130 -251 -144 -313 -20 -20 39 -16 43 44 54 31 6 40 3 63 -20 20 -20 32 -24
53 -19 36 9 52 23 52 46 0 23 -31 42 -94 59 -30 8 -63 27 -87 50 -33 32 -39
43 -39 79 0 86 63 140 161 141 42 0 65 -6 90 -23z"/>
<path d="M1872 1163 l3 -258 68 -3 67 -3 0 96 0 95 75 0 75 0 0 -95 0 -95 70
0 70 0 0 260 0 260 -70 0 -70 0 0 -90 0 -90 -75 0 -75 0 0 90 0 90 -70 0 -70
0 2 -257z m120 145 l3 -93 90 0 90 0 3 93 3 92 49 0 50 0 0 -235 0 -235 -50 0
-50 0 0 90 0 90 -95 0 -95 0 0 -90 0 -90 -50 0 -50 0 0 235 0 235 50 0 49 0 3
-92z"/>
<path d="M2442 1168 c-67 -139 -122 -256 -122 -260 0 -5 33 -8 73 -8 l74 0 18
40 18 40 82 0 82 0 18 -40 18 -40 74 0 c40 0 73 4 73 9 0 5 -55 122 -122 260
-103 213 -125 251 -143 251 -18 0 -40 -38 -143 -252z m192 149 c21 -45 72
-151 112 -234 l73 -153 -53 0 c-50 0 -53 2 -69 35 l-17 35 -95 0 -95 0 -14
-35 c-15 -34 -17 -35 -70 -35 l-55 0 83 173 c116 241 145 297 154 297 4 -1 24
-38 46 -83z"/>
<path d="M2562 1135 c-12 -25 -22 -48 -22 -50 0 -3 20 -5 45 -5 25 0 45 3 45
8 -1 4 -11 26 -23 50 l-23 43 -22 -46z m32 -20 c3 -9 0 -15 -9 -15 -9 0 -12 6
-9 15 4 8 7 15 9 15 2 0 5 -7 9 -15z"/>
<path d="M2872 1163 l3 -258 67 -3 67 -3 3 83 3 83 59 -75 c33 -41 62 -79 66
-83 4 -4 36 29 71 75 l64 83 3 -83 3 -82 69 0 70 0 0 260 0 260 -22 0 c-18 -1
-49 -36 -132 -146 -61 -80 -113 -147 -117 -149 -4 -3 -58 63 -120 145 -88 116
-119 150 -137 150 l-22 0 2 -257z m140 94 c59 -78 113 -150 121 -160 12 -17
23 -5 130 137 65 85 122 158 127 161 6 4 10 -81 10 -229 l0 -236 -50 0 -49 0
-3 97 -3 97 -68 -86 c-37 -48 -71 -90 -76 -93 -5 -3 -42 37 -83 87 l-73 93 -3
-97 -3 -98 -49 0 -50 0 0 235 c0 129 3 235 8 235 4 0 55 -65 114 -143z"/>
<path d="M3562 1167 c-67 -139 -122 -257 -122 -260 0 -4 34 -7 75 -7 l75 0 20
40 20 40 78 0 77 0 20 -38 c20 -37 20 -37 93 -40 44 -2 72 1 72 7 0 6 -54 122
-120 258 -101 210 -123 248 -142 251 -22 3 -35 -20 -146 -251z m222 90 c37
-78 88 -184 112 -234 l43 -93 -52 0 c-51 0 -54 2 -70 35 l-17 35 -93 0 -93 0
-17 -35 c-16 -34 -19 -35 -72 -35 l-55 0 31 63 c18 34 69 140 115 235 45 94
86 172 91 172 4 0 39 -64 77 -143z"/>
<path d="M3682 1135 c-12 -25 -22 -48 -22 -50 0 -3 20 -5 45 -5 25 0 45 3 45
8 -1 4 -11 26 -23 50 l-23 43 -22 -46z m32 -20 c3 -9 0 -15 -9 -15 -9 0 -12 6
-9 15 4 8 7 15 9 15 2 0 5 -7 9 -15z"/>
<path d="M4530 1350 l0 -70 60 0 60 0 2 -187 3 -188 78 -3 77 -3 0 190 0 190
63 3 62 3 3 68 3 67 -206 0 -205 0 0 -70z m380 0 l0 -50 -60 0 -60 0 0 -185 0
-185 -55 0 -55 0 0 185 0 185 -65 0 -65 0 0 50 0 50 180 0 180 0 0 -50z"/>
<path d="M4981 1168 c-67 -139 -121 -256 -121 -260 0 -5 33 -8 73 -8 l74 0 18
40 18 40 82 0 82 0 18 -40 18 -40 74 0 c40 0 73 4 73 9 0 5 -55 122 -122 260
-103 213 -125 251 -143 251 -18 0 -40 -38 -144 -252z m195 140 c26 -51 77
-157 115 -235 l68 -143 -53 0 c-50 0 -53 2 -69 35 l-17 35 -95 0 -95 0 -17
-35 c-16 -33 -19 -35 -69 -35 l-53 0 73 153 c99 205 155 317 161 317 3 0 26
-42 51 -92z"/>
<path d="M5102 1135 c-12 -25 -22 -48 -22 -50 0 -3 20 -5 45 -5 25 0 45 3 45
8 -1 4 -11 26 -23 50 l-23 43 -22 -46z m32 -20 c3 -9 0 -15 -9 -15 -9 0 -12 6
-9 15 4 8 7 15 9 15 2 0 5 -7 9 -15z"/>
<path d="M6760 1389 c-29 -53 40 -96 74 -47 13 19 14 25 2 43 -19 29 -62 32
-76 4z m58 -1 c15 -15 16 -38 1 -38 -5 0 -7 5 -3 12 4 6 -1 17 -11 25 -11 7
-14 13 -9 13 6 0 15 -5 22 -12z m-41 -35 c-3 -10 -5 -4 -5 12 0 17 2 24 5 18
2 -7 2 -21 0 -30z m28 -13 c3 -5 1 -10 -4 -10 -6 0 -11 5 -11 10 0 6 2 10 4
10 3 0 8 -4 11 -10z"/>
<path d="M2720 605 c0 -69 3 -85 15 -85 10 0 15 10 15 29 0 25 4 30 27 33 17
2 29 10 31 21 3 13 -3 17 -27 17 -21 0 -31 5 -31 15 0 10 11 15 35 15 28 0 35
4 35 20 0 17 -7 20 -50 20 l-50 0 0 -85z"/>
<path d="M2830 605 c0 -78 2 -85 20 -85 16 0 20 7 20 33 l0 32 21 -32 c14 -23
29 -33 46 -33 l24 0 -20 29 c-18 25 -19 30 -6 41 8 7 15 25 15 41 0 36 -32 59
-82 59 l-38 0 0 -85z m78 22 c2 -12 -3 -17 -17 -17 -15 0 -21 6 -21 21 0 25
33 22 38 -4z"/>
<path d="M2970 606 l0 -86 55 0 c42 0 55 3 55 15 0 10 -11 15 -35 15 -24 0
-35 5 -35 15 0 9 9 15 25 15 18 0 25 5 25 20 0 15 -7 20 -25 20 -38 0 -32 28
8 32 20 2 32 8 32 18 0 11 -14 16 -52 18 l-53 3 0 -85z"/>
<path d="M3090 607 c0 -80 2 -87 20 -87 17 0 20 7 20 42 l0 42 43 -42 c23 -23
46 -42 50 -42 4 0 7 37 5 82 -3 70 -6 83 -20 86 -15 3 -18 -4 -18 -44 l0 -48
-50 49 -50 49 0 -87z"/>
<path d="M3285 678 c-32 -17 -45 -39 -45 -74 0 -49 36 -86 83 -86 46 0 73 18
56 38 -8 10 -16 11 -31 3 -32 -17 -68 4 -68 40 0 37 22 55 59 48 41 -9 60 16
25 31 -31 15 -53 15 -79 0z"/>
<path d="M3400 606 c0 -79 2 -86 20 -86 16 0 20 7 20 30 0 25 4 30 25 30 21 0
25 -5 25 -30 0 -24 4 -30 20 -30 20 0 21 5 18 82 -3 70 -6 83 -20 86 -15 3
-18 -4 -18 -32 0 -31 -3 -36 -24 -36 -21 0 -25 6 -28 32 -2 22 -9 34 -20 36
-16 3 -18 -6 -18 -82z"/>
<path d="M3600 670 c0 -13 7 -20 20 -20 18 0 20 -7 20 -65 0 -58 2 -65 20 -65
18 0 20 7 20 65 0 58 2 65 20 65 13 0 20 7 20 20 0 18 -7 20 -60 20 -53 0 -60
-2 -60 -20z"/>
<path d="M3739 608 c-29 -66 -33 -84 -22 -86 9 -2 20 1 26 7 14 14 67 15 67 1
0 -5 9 -10 20 -10 11 0 20 4 20 9 0 9 -69 161 -73 161 -2 0 -19 -37 -38 -82z
m46 -18 c3 -5 1 -10 -4 -10 -6 0 -11 5 -11 10 0 6 2 10 4 10 3 0 8 -4 11 -10z"/>
<path d="M3875 665 c-36 -35 -37 -85 -3 -122 24 -26 53 -32 91 -20 35 12 30
32 -9 33 -48 1 -53 3 -64 25 -9 16 -8 26 5 46 14 21 22 24 51 20 39 -7 55 10
29 30 -29 21 -73 16 -100 -12z"/>
<path d="M4035 678 c-32 -17 -45 -39 -45 -75 0 -74 93 -111 145 -58 68 67 -16
179 -100 133z m73 -40 c21 -21 15 -67 -12 -79 -34 -16 -66 3 -66 39 0 33 16
52 45 52 12 0 26 -5 33 -12z"/>
<path d="M4185 674 c-26 -26 -15 -67 23 -84 35 -17 33 -33 -3 -24 -27 7 -41
-11 -26 -30 21 -25 51 -25 79 -1 23 20 25 25 14 49 -6 14 -23 28 -37 32 -34 8
-26 30 8 26 18 -2 27 1 27 10 0 37 -56 51 -85 22z"/>
<path d="M4366 677 c-30 -22 -17 -69 24 -89 36 -17 34 -20 -10 -22 -32 -1 -33
-27 -1 -43 28 -14 55 -4 71 27 14 27 -3 58 -35 66 -38 9 -33 35 5 28 23 -5 30
-3 30 9 0 17 -29 37 -52 37 -8 0 -22 -6 -32 -13z"/>
<path d="M4470 606 c0 -80 1 -86 20 -86 20 0 21 5 18 82 -3 70 -6 83 -20 86
-16 3 -18 -6 -18 -82z"/>
<path d="M4520 606 c0 -79 2 -86 20 -86 17 0 20 7 20 42 l0 42 28 -25 c15 -13
37 -33 50 -43 l22 -19 0 87 c0 78 -2 87 -17 84 -12 -2 -20 -15 -23 -42 l-5
-38 -47 42 -48 42 0 -86z"/>
<path d="M4707 670 c-77 -60 -9 -181 83 -149 33 12 36 19 18 37 -8 8 -17 8
-30 1 -14 -8 -26 -6 -44 6 -48 31 -17 92 42 81 39 -8 56 11 29 31 -27 19 -68
16 -98 -7z"/>
<path d="M4837 683 c-4 -3 -7 -42 -7 -85 l0 -78 55 0 c42 0 55 3 55 15 0 10
-11 15 -35 15 -24 0 -35 5 -35 15 0 9 9 15 25 15 18 0 25 5 25 20 0 15 -7 20
-25 20 -16 0 -25 6 -25 15 0 10 11 15 35 15 28 0 35 4 35 20 0 17 -7 20 -48
20 -27 0 -52 -3 -55 -7z"/>
<path d="M5032 674 c-27 -19 -29 -44 -2 -44 11 0 20 5 20 10 0 6 9 10 20 10
33 0 24 -36 -20 -79 -22 -21 -40 -41 -40 -45 0 -3 27 -6 60 -6 47 0 60 3 60
15 0 8 -9 15 -21 15 l-20 0 20 29 c12 16 21 41 21 54 0 27 -32 57 -60 57 -9 0
-26 -7 -38 -16z"/>
<path d="M5160 663 c-17 -22 -21 -37 -17 -70 6 -55 21 -73 63 -73 42 0 64 30
64 87 0 78 -66 111 -110 56z m70 -38 c16 -41 -11 -85 -37 -63 -14 11 -18 70
-6 81 14 14 34 6 43 -18z"/>
<path d="M5303 679 c-23 -8 -32 -39 -13 -39 6 0 10 -27 10 -60 0 -53 2 -60 20
-60 18 0 20 7 20 79 0 44 -3 82 -7 84 -5 3 -18 1 -30 -4z"/>
<path d="M5389 663 c-17 -43 -39 -105 -39 -109 0 -2 18 -4 40 -4 29 0 40 -4
40 -15 0 -8 9 -15 20 -15 11 0 20 7 20 15 0 8 5 15 10 15 6 0 10 9 10 20 0 11
-4 20 -10 20 -5 0 -10 16 -10 36 0 28 -3 35 -17 32 -12 -2 -19 -14 -21 -36 -2
-18 -9 -32 -17 -32 -10 0 -9 11 6 50 19 50 19 50 -1 50 -13 0 -24 -10 -31 -27z"/>
</g>
</svg>
